%TF.GenerationSoftware,KiCad,Pcbnew,8.0.6*%
%TF.CreationDate,2025-01-03T23:57:13-08:00*%
%TF.ProjectId,sessile,73657373-696c-4652-9e6b-696361645f70,0.1*%
%TF.SameCoordinates,Original*%
%TF.FileFunction,Legend,Bot*%
%TF.FilePolarity,Positive*%
%FSLAX46Y46*%
G04 Gerber Fmt 4.6, Leading zero omitted, Abs format (unit mm)*
G04 Created by KiCad (PCBNEW 8.0.6) date 2025-01-03 23:57:13*
%MOMM*%
%LPD*%
G01*
G04 APERTURE LIST*
G04 Aperture macros list*
%AMRoundRect*
0 Rectangle with rounded corners*
0 $1 Rounding radius*
0 $2 $3 $4 $5 $6 $7 $8 $9 X,Y pos of 4 corners*
0 Add a 4 corners polygon primitive as box body*
4,1,4,$2,$3,$4,$5,$6,$7,$8,$9,$2,$3,0*
0 Add four circle primitives for the rounded corners*
1,1,$1+$1,$2,$3*
1,1,$1+$1,$4,$5*
1,1,$1+$1,$6,$7*
1,1,$1+$1,$8,$9*
0 Add four rect primitives between the rounded corners*
20,1,$1+$1,$2,$3,$4,$5,0*
20,1,$1+$1,$4,$5,$6,$7,0*
20,1,$1+$1,$6,$7,$8,$9,0*
20,1,$1+$1,$8,$9,$2,$3,0*%
G04 Aperture macros list end*
%ADD10RoundRect,0.050000X-0.700000X-0.700000X0.700000X-0.700000X0.700000X0.700000X-0.700000X0.700000X0*%
%ADD11C,1.500000*%
%ADD12C,3.529000*%
%ADD13C,1.801800*%
%ADD14C,2.132000*%
%ADD15C,2.700000*%
%ADD16C,1.000000*%
%ADD17C,2.362000*%
%ADD18C,1.497000*%
%ADD19O,2.850000X1.600000*%
G04 APERTURE END LIST*
%LPC*%
D10*
%TO.C,J60*%
X171399034Y-119199218D03*
D11*
X171399034Y-121739218D03*
X171399034Y-124279218D03*
X171399034Y-126819218D03*
X171399034Y-129359218D03*
X171399034Y-131899218D03*
X171399034Y-134439218D03*
%TD*%
D10*
%TO.C,J61*%
X186639034Y-119199218D03*
D11*
X186639034Y-121739218D03*
X186639034Y-124279218D03*
X186639034Y-126819218D03*
X186639034Y-129359218D03*
X186639034Y-131899218D03*
X186639034Y-134439218D03*
%TD*%
D12*
%TO.C,S1*%
X76087616Y-119208535D03*
D13*
X81458260Y-120394360D03*
X70716972Y-118022710D03*
D14*
X81789317Y-116575931D03*
X77359683Y-113447299D03*
%TD*%
D12*
%TO.C,S2*%
X79860696Y-102120122D03*
D13*
X85231340Y-103305947D03*
X74490052Y-100934297D03*
D14*
X85562397Y-99487518D03*
X81132763Y-96358886D03*
%TD*%
D12*
%TO.C,S3*%
X83633777Y-85031708D03*
D13*
X89004421Y-86217533D03*
X78263133Y-83845883D03*
D14*
X89335478Y-82399104D03*
X84905844Y-79270472D03*
%TD*%
D12*
%TO.C,S4*%
X100361340Y-113815214D03*
D13*
X105471179Y-115849802D03*
X95251501Y-111780626D03*
D14*
X106412363Y-112134406D03*
X102543898Y-108333751D03*
%TD*%
D12*
%TO.C,S5*%
X106835030Y-97556637D03*
D13*
X111944869Y-99591225D03*
X101725191Y-95522049D03*
D14*
X112886053Y-95875829D03*
X109017588Y-92075174D03*
%TD*%
D12*
%TO.C,S6*%
X113308720Y-81298060D03*
D13*
X118418559Y-83332648D03*
X108198881Y-79263472D03*
D14*
X119359743Y-79617252D03*
X115491278Y-75816597D03*
%TD*%
D12*
%TO.C,S7*%
X118821522Y-117462858D03*
D13*
X123783631Y-119835087D03*
X113859413Y-115090629D03*
D14*
X124971525Y-116191063D03*
X121366277Y-112139868D03*
%TD*%
%TO.C,S8*%
X128914277Y-96351338D03*
X132519525Y-100402533D03*
D13*
X121407413Y-99302099D03*
X131331631Y-104046557D03*
D12*
X126369522Y-101674328D03*
%TD*%
%TO.C,S9*%
X133917523Y-85885797D03*
D13*
X138879632Y-88258026D03*
X128955414Y-83513568D03*
D14*
X140067526Y-84614002D03*
X136462278Y-80562807D03*
%TD*%
D12*
%TO.C,S10*%
X132708710Y-131306484D03*
D13*
X136851352Y-134924290D03*
X128566068Y-127688678D03*
D14*
X138974323Y-131733209D03*
X136589629Y-126862559D03*
%TD*%
D12*
%TO.C,S11*%
X144219910Y-118125351D03*
D13*
X148362552Y-121743157D03*
X140077268Y-114507545D03*
D14*
X150485523Y-118552076D03*
X148100829Y-113681426D03*
%TD*%
D12*
%TO.C,S12*%
X155731110Y-104944218D03*
D13*
X159873752Y-108562024D03*
X151588468Y-101326412D03*
D14*
X161996723Y-105370943D03*
X159612029Y-100500293D03*
%TD*%
D12*
%TO.C,S13*%
X281950453Y-119208535D03*
D13*
X287321097Y-118022710D03*
X276579809Y-120394360D03*
D14*
X286013559Y-114419885D03*
X280678386Y-113447299D03*
%TD*%
D12*
%TO.C,S14*%
X278177372Y-102120122D03*
D13*
X283548016Y-100934297D03*
X272806728Y-103305947D03*
D14*
X282240478Y-97331472D03*
X276905305Y-96358886D03*
%TD*%
D12*
%TO.C,S15*%
X274404292Y-85031708D03*
D13*
X279774936Y-83845883D03*
X269033648Y-86217533D03*
D14*
X278467398Y-80243058D03*
X273132225Y-79270472D03*
%TD*%
D12*
%TO.C,S16*%
X257676728Y-113815214D03*
D13*
X262786567Y-111780626D03*
X252566889Y-115849802D03*
D14*
X260916320Y-108435154D03*
X255494170Y-108333751D03*
%TD*%
D12*
%TO.C,S17*%
X251203039Y-97556637D03*
D13*
X256312878Y-95522049D03*
X246093200Y-99591225D03*
D14*
X254442631Y-92176577D03*
X249020481Y-92075174D03*
%TD*%
D12*
%TO.C,S18*%
X244729349Y-81298060D03*
D13*
X249839188Y-79263472D03*
X239619510Y-83332648D03*
D14*
X247968941Y-75918000D03*
X242546791Y-75816597D03*
%TD*%
D12*
%TO.C,S19*%
X239216547Y-117462858D03*
D13*
X244178656Y-115090629D03*
X234254438Y-119835087D03*
D14*
X242088561Y-111877920D03*
X236671792Y-112139868D03*
%TD*%
D12*
%TO.C,S20*%
X231668546Y-101674328D03*
D13*
X236630655Y-99302099D03*
X226706437Y-104046557D03*
D14*
X234540560Y-96089390D03*
X229123791Y-96351338D03*
%TD*%
D12*
%TO.C,S21*%
X224120545Y-85885797D03*
D13*
X229082654Y-83513568D03*
X219158436Y-88258026D03*
D14*
X226992559Y-80300859D03*
X221575790Y-80562807D03*
%TD*%
D12*
%TO.C,S22*%
X225329358Y-131306484D03*
D13*
X229472000Y-127688678D03*
X221186716Y-134924290D03*
D14*
X226595821Y-125155381D03*
X221448439Y-126862559D03*
%TD*%
D12*
%TO.C,S23*%
X213818158Y-118125351D03*
D13*
X217960800Y-114507545D03*
X209675516Y-121743157D03*
D14*
X215084621Y-111974248D03*
X209937239Y-113681426D03*
%TD*%
D12*
%TO.C,S24*%
X202306958Y-104944218D03*
D13*
X206449600Y-101326412D03*
X198164316Y-108562024D03*
D14*
X203573421Y-98793115D03*
X198426039Y-100500293D03*
%TD*%
D12*
%TO.C,S25*%
X129972971Y-158656816D03*
D13*
X134115613Y-162274622D03*
X125830329Y-155039010D03*
D14*
X136238584Y-159083541D03*
X133853890Y-154212891D03*
%TD*%
%TO.C,S26*%
X147292437Y-171829894D03*
X147678909Y-177239205D03*
D13*
X139543651Y-169590180D03*
X144515125Y-179402644D03*
D12*
X142029388Y-174496412D03*
%TD*%
%TO.C,S27*%
X228065097Y-158656816D03*
D13*
X232207739Y-155039010D03*
X223922455Y-162274622D03*
D14*
X229331560Y-152505713D03*
X224184178Y-154212891D03*
%TD*%
D12*
%TO.C,S28*%
X216008680Y-174496412D03*
D13*
X218494417Y-169590180D03*
X213522943Y-179402644D03*
D14*
X214878680Y-168318783D03*
X210745631Y-171829894D03*
%TD*%
D15*
%TO.C,BAT1*%
X172409034Y-147269218D03*
X185629034Y-147269218D03*
%TD*%
D16*
%TO.C,SW1*%
X177519034Y-118094218D03*
X180519034Y-118094218D03*
%TD*%
D11*
%TO.C,J1*%
X174574034Y-126502218D03*
%TD*%
%TO.C,J2*%
X182829034Y-135519218D03*
%TD*%
%TO.C,J3*%
X184734034Y-136319218D03*
%TD*%
D17*
%TO.C,J4*%
X77359683Y-113447298D03*
%TD*%
%TO.C,J5*%
X81132763Y-96358885D03*
%TD*%
%TO.C,J6*%
X84905844Y-79270472D03*
%TD*%
%TO.C,J7*%
X102543898Y-108333751D03*
%TD*%
%TO.C,J8*%
X109017588Y-92075174D03*
%TD*%
%TO.C,J9*%
X115491278Y-75816596D03*
%TD*%
%TO.C,J10*%
X121366276Y-112139867D03*
%TD*%
%TO.C,J11*%
X128914277Y-96351337D03*
%TD*%
%TO.C,J12*%
X136462278Y-80562807D03*
%TD*%
%TO.C,J13*%
X136589629Y-126862559D03*
%TD*%
%TO.C,J14*%
X148100829Y-113681426D03*
%TD*%
%TO.C,J15*%
X159612029Y-100500293D03*
%TD*%
%TO.C,J16*%
X280678386Y-113447298D03*
%TD*%
%TO.C,J17*%
X276905305Y-96358885D03*
%TD*%
%TO.C,J18*%
X273132225Y-79270472D03*
%TD*%
%TO.C,J19*%
X255494170Y-108333751D03*
%TD*%
%TO.C,J20*%
X249020480Y-92075174D03*
%TD*%
%TO.C,J21*%
X242546790Y-75816596D03*
%TD*%
%TO.C,J22*%
X236671792Y-112139867D03*
%TD*%
%TO.C,J23*%
X229123791Y-96351337D03*
%TD*%
%TO.C,J24*%
X221575791Y-80562807D03*
%TD*%
%TO.C,J25*%
X221448439Y-126862559D03*
%TD*%
%TO.C,J26*%
X209937239Y-113681426D03*
%TD*%
%TO.C,J27*%
X198426039Y-100500293D03*
%TD*%
%TO.C,J28*%
X133853890Y-154212891D03*
%TD*%
%TO.C,J29*%
X147292437Y-171829894D03*
%TD*%
%TO.C,J30*%
X224184178Y-154212891D03*
%TD*%
%TO.C,J31*%
X210745632Y-171829894D03*
%TD*%
%TO.C,J32*%
X81789317Y-116575931D03*
%TD*%
%TO.C,J33*%
X85562397Y-99487518D03*
%TD*%
%TO.C,J34*%
X89335478Y-82399105D03*
%TD*%
%TO.C,J35*%
X106412363Y-112134406D03*
%TD*%
%TO.C,J36*%
X112886053Y-95875829D03*
%TD*%
%TO.C,J37*%
X119359743Y-79617251D03*
%TD*%
%TO.C,J38*%
X124971525Y-116191063D03*
%TD*%
%TO.C,J39*%
X132519525Y-100402533D03*
%TD*%
%TO.C,J40*%
X140067526Y-84614003D03*
%TD*%
%TO.C,J41*%
X138974323Y-131733209D03*
%TD*%
%TO.C,J42*%
X150485523Y-118552076D03*
%TD*%
%TO.C,J43*%
X161996723Y-105370943D03*
%TD*%
%TO.C,J44*%
X286013559Y-114419885D03*
%TD*%
%TO.C,J45*%
X282240479Y-97331472D03*
%TD*%
%TO.C,J46*%
X278467398Y-80243059D03*
%TD*%
%TO.C,J47*%
X260916321Y-108435155D03*
%TD*%
%TO.C,J48*%
X254442631Y-92176577D03*
%TD*%
%TO.C,J49*%
X247968941Y-75918000D03*
%TD*%
%TO.C,J50*%
X242088561Y-111877919D03*
%TD*%
%TO.C,J51*%
X234540560Y-96089389D03*
%TD*%
%TO.C,J52*%
X226992559Y-80300859D03*
%TD*%
%TO.C,J53*%
X226595821Y-125155381D03*
%TD*%
%TO.C,J54*%
X215084621Y-111974248D03*
%TD*%
%TO.C,J55*%
X203573421Y-98793115D03*
%TD*%
%TO.C,J56*%
X136238584Y-159083541D03*
%TD*%
%TO.C,J57*%
X147678909Y-177239205D03*
%TD*%
%TO.C,J58*%
X229331560Y-152505712D03*
%TD*%
%TO.C,J59*%
X214878681Y-168318783D03*
%TD*%
D18*
%TO.C,MCU1*%
X174574034Y-126502218D03*
D19*
X170974034Y-119199218D03*
X170974034Y-121739218D03*
X170974034Y-124279218D03*
X170974034Y-126819218D03*
X170974034Y-129359218D03*
X170974034Y-131899218D03*
X170974034Y-134439218D03*
X187064034Y-134439218D03*
X187064034Y-131899218D03*
X187064034Y-129359218D03*
X187064034Y-126819218D03*
X187064034Y-124279218D03*
X187064034Y-121739218D03*
X187064034Y-119199218D03*
%TD*%
%LPD*%
M02*
