M48
; DRILL file {KiCad 8.0.6} date 2025-01-03T23:57:13-0800
; FORMAT={-:-/ absolute / inch / decimal}
; #@! TF.CreationDate,2025-01-03T23:57:13-08:00
; #@! TF.GenerationSoftware,Kicad,Pcbnew,8.0.6
; #@! TF.FileFunction,Plated,1,2,PTH
FMAT,2
INCH
; #@! TA.AperFunction,Plated,PTH,ViaDrill
T1C0.0157
; #@! TA.AperFunction,Plated,PTH,ViaDrill
T2C0.0197
; #@! TA.AperFunction,Plated,PTH,ComponentDrill
T3C0.0236
; #@! TA.AperFunction,Plated,PTH,ComponentDrill
T4C0.0315
; #@! TA.AperFunction,Plated,PTH,ComponentDrill
T5C0.0394
; #@! TA.AperFunction,Plated,PTH,ComponentDrill
T6C0.0500
; #@! TA.AperFunction,Plated,PTH,ComponentDrill
T7C0.0591
; #@! TA.AperFunction,Plated,PTH,ComponentDrill
T8C0.0787
%
G90
G05
T1
X6.9094Y-5.626
X6.9134Y-5.8976
X7.1811Y-5.8976
X7.185Y-5.6259
X7.3071Y-5.5906
X7.3937Y-5.6614
X7.3937Y-5.9764
X7.4646Y-5.7244
T2
X7.5512Y-5.5039
X8.811Y-5.5039
T3
X6.873Y-4.9804
X6.873Y-4.9804
X7.198Y-5.3354
X7.273Y-5.3669
T4
X6.748Y-4.6929
X6.748Y-4.7929
X6.748Y-4.8929
X6.748Y-4.9929
X6.748Y-5.0929
X6.748Y-5.1929
X6.748Y-5.2929
X7.348Y-4.6929
X7.348Y-4.7929
X7.348Y-4.8929
X7.348Y-4.9929
X7.348Y-5.0929
X7.348Y-5.1929
X7.348Y-5.2929
T5
X6.748Y-4.6929
X6.748Y-4.7929
X6.748Y-4.8929
X6.748Y-4.9929
X6.748Y-5.0929
X6.748Y-5.1929
X6.748Y-5.2929
X7.348Y-4.6929
X7.348Y-4.7929
X7.348Y-4.8929
X7.348Y-4.9929
X7.348Y-5.0929
X7.348Y-5.1929
X7.348Y-5.2929
T6
X3.0457Y-4.4664
X3.1942Y-3.7937
X3.2201Y-4.5896
X3.3427Y-3.1209
X3.3686Y-3.9168
X3.5171Y-3.2441
X4.0372Y-4.2651
X4.1895Y-4.4147
X4.292Y-3.625
X4.4443Y-3.7746
X4.5469Y-2.9849
X4.6992Y-3.1345
X4.7782Y-4.415
X4.9201Y-4.5745
X5.0754Y-3.7934
X5.2173Y-3.9529
X5.2698Y-6.0714
X5.3637Y-6.2631
X5.3725Y-3.1718
X5.3775Y-4.9946
X5.4714Y-5.1863
X5.5145Y-3.3313
X5.7989Y-6.765
X5.8141Y-6.9779
X5.8307Y-4.4756
X5.9246Y-4.6674
X6.2839Y-3.9567
X6.3778Y-4.1485
X7.812Y-3.9567
X8.0147Y-3.8895
X8.2652Y-4.4756
X8.2971Y-6.765
X8.4598Y-6.6267
X8.4679Y-4.4084
X8.7184Y-4.9946
X8.7235Y-3.1718
X8.8261Y-6.0714
X8.9211Y-4.9274
X8.9367Y-3.1615
X9.0206Y-3.7934
X9.0288Y-6.0042
X9.2339Y-3.783
X9.3178Y-4.415
X9.531Y-4.4046
X9.5491Y-2.9849
X9.7626Y-2.9889
X9.804Y-3.625
X10.0174Y-3.629
X10.0588Y-4.2651
X10.2723Y-4.2691
X10.7532Y-3.1209
X10.9018Y-3.7937
X10.9633Y-3.1592
X11.0503Y-4.4664
X11.1118Y-3.8319
X11.2604Y-4.5047
T7
X3.0457Y-4.4664
X3.1942Y-3.7937
X3.2201Y-4.5896
X3.3427Y-3.1209
X3.3686Y-3.9168
X3.5171Y-3.2441
X4.0372Y-4.2651
X4.1895Y-4.4147
X4.292Y-3.625
X4.4443Y-3.7746
X4.5469Y-2.9849
X4.6992Y-3.1345
X4.7782Y-4.415
X4.9201Y-4.5745
X5.0754Y-3.7934
X5.2173Y-3.9529
X5.2698Y-6.0714
X5.3637Y-6.2631
X5.3725Y-3.1718
X5.3775Y-4.9946
X5.4714Y-5.1863
X5.5145Y-3.3313
X5.7989Y-6.765
X5.8141Y-6.9779
X5.8307Y-4.4756
X5.9246Y-4.6674
X6.2839Y-3.9567
X6.3778Y-4.1485
X7.812Y-3.9567
X8.0147Y-3.8895
X8.2652Y-4.4756
X8.2971Y-6.765
X8.4598Y-6.6267
X8.4679Y-4.4084
X8.7184Y-4.9946
X8.7235Y-3.1718
X8.8261Y-6.0714
X8.9211Y-4.9274
X8.9367Y-3.1615
X9.0206Y-3.7934
X9.0288Y-6.0042
X9.2339Y-3.783
X9.3178Y-4.415
X9.531Y-4.4046
X9.5491Y-2.9849
X9.7626Y-2.9889
X9.804Y-3.625
X10.0174Y-3.629
X10.0588Y-4.2651
X10.2723Y-4.2691
X10.7532Y-3.1209
X10.9018Y-3.7937
X10.9633Y-3.1592
X11.0503Y-4.4664
X11.1118Y-3.8319
X11.2604Y-4.5047
T8
X6.7878Y-5.798
X7.3082Y-5.798
M30
