M48
; DRILL file {KiCad 8.0.6} date 2025-01-03T23:57:13-0800
; FORMAT={-:-/ absolute / inch / decimal}
; #@! TF.CreationDate,2025-01-03T23:57:13-08:00
; #@! TF.GenerationSoftware,Kicad,Pcbnew,8.0.6
; #@! TF.FileFunction,NonPlated,1,2,NPTH
FMAT,2
INCH
; #@! TA.AperFunction,NonPlated,NPTH,ComponentDrill
T1C0.0354
; #@! TA.AperFunction,NonPlated,NPTH,ComponentDrill
T2C0.0670
; #@! TA.AperFunction,NonPlated,NPTH,ComponentDrill
T3C0.1350
%
G90
G05
T1
X6.9889Y-4.6494
X7.107Y-4.6494
T2
X2.7841Y-4.6466
X2.9327Y-3.9738
X3.0812Y-3.301
X3.207Y-4.7399
X3.3556Y-4.0672
X3.5041Y-3.3944
X3.7501Y-4.4008
X4.0049Y-3.7607
X4.1524Y-4.561
X4.2598Y-3.1206
X4.4073Y-3.9209
X4.4827Y-4.5311
X4.6621Y-3.2808
X4.7798Y-3.9095
X4.8734Y-4.7179
X4.9539Y-6.1039
X5.0617Y-5.0271
X5.077Y-3.2879
X5.1705Y-4.0963
X5.2801Y-6.3888
X5.3878Y-5.312
X5.4677Y-3.4747
X5.4938Y-6.6768
X5.5149Y-4.5082
X5.6896Y-7.0631
X5.841Y-4.793
X5.968Y-3.9892
X6.2942Y-4.2741
X7.8017Y-4.2741
X8.1279Y-3.9892
X8.2549Y-4.793
X8.4064Y-7.0631
X8.5811Y-4.5082
X8.6021Y-6.6768
X8.6283Y-3.4747
X8.7081Y-5.312
X8.8158Y-6.3888
X8.9255Y-4.0963
X9.019Y-3.2879
X9.0343Y-5.0271
X9.142Y-6.1039
X9.2226Y-4.7179
X9.3162Y-3.9095
X9.4338Y-3.2808
X9.6133Y-4.5311
X9.6887Y-3.9209
X9.8362Y-3.1206
X9.9436Y-4.561
X10.0911Y-3.7607
X10.3459Y-4.4008
X10.5919Y-3.3944
X10.7404Y-4.0672
X10.889Y-4.7399
X11.0148Y-3.301
X11.1633Y-3.9738
X11.3119Y-4.6466
T3
X2.9956Y-4.6932
X3.1441Y-4.0205
X3.2927Y-3.3477
X3.9512Y-4.4809
X4.2061Y-3.8408
X4.461Y-3.2007
X4.678Y-4.6245
X4.9752Y-4.0029
X5.117Y-6.2463
X5.2248Y-5.1695
X5.2723Y-3.3813
X5.5917Y-6.8699
X5.6779Y-4.6506
X6.1311Y-4.1317
X7.9648Y-4.1317
X8.418Y-4.6506
X8.5043Y-6.8699
X8.8236Y-3.3813
X8.8712Y-5.1695
X8.9789Y-6.2463
X9.1208Y-4.0029
X9.418Y-4.6245
X9.635Y-3.2007
X9.8899Y-3.8408
X10.1448Y-4.4809
X10.8033Y-3.3477
X10.9519Y-4.0205
X11.1004Y-4.6932
M30
