%TF.GenerationSoftware,KiCad,Pcbnew,8.0.7*%
%TF.CreationDate,2025-01-10T10:44:29-08:00*%
%TF.ProjectId,sessile,73657373-696c-4652-9e6b-696361645f70,0.1*%
%TF.SameCoordinates,Original*%
%TF.FileFunction,Profile,NP*%
%FSLAX46Y46*%
G04 Gerber Fmt 4.6, Leading zero omitted, Abs format (unit mm)*
G04 Created by KiCad (PCBNEW 8.0.7) date 2025-01-10 10:44:29*
%MOMM*%
%LPD*%
G01*
G04 APERTURE LIST*
%TA.AperFunction,Profile*%
%ADD10C,0.150000*%
%TD*%
G04 APERTURE END LIST*
D10*
X192334600Y-105687235D02*
X198724092Y-113003652D01*
X82605834Y-126792256D02*
X84419603Y-118577633D01*
X119029697Y-129981722D02*
X131912968Y-141232797D01*
X280922510Y-77447987D02*
X291055926Y-123342582D01*
X141128863Y-185994740D02*
X159638739Y-176616733D01*
X192334600Y-105687235D02*
G75*
G02*
X192525479Y-102865288I1506400J1315535D01*
G01*
X87112415Y-117150719D02*
X118453981Y-129630014D01*
X197519149Y-173928745D02*
X200940913Y-167175027D01*
X143755978Y-83860403D02*
X165512619Y-102865254D01*
X255070748Y-81107822D02*
X278538340Y-75926235D01*
X142019034Y-146869968D02*
X142019034Y-146938524D01*
X132332227Y-75290871D02*
X143158648Y-80466643D01*
X219597194Y-185114560D02*
X227092398Y-170320874D01*
X130945671Y-170320874D02*
X138440875Y-185114560D01*
X79499729Y-75926235D02*
X102967320Y-81107822D01*
X105256653Y-79894711D02*
X108095778Y-72764289D01*
X216019034Y-146938524D02*
X216019034Y-146869968D01*
X247344317Y-71646015D02*
G75*
G02*
X249942311Y-72764281I739883J-1858085D01*
G01*
X200216712Y-164575055D02*
G75*
G02*
X200940877Y-167175009I-1059912J-1696045D01*
G01*
X165512619Y-102865253D02*
G75*
G02*
X165703505Y-105687267I-1315519J-1506447D01*
G01*
X239008372Y-129981722D02*
G75*
G02*
X239584085Y-129630008I1315628J-1506478D01*
G01*
X130477152Y-169718363D02*
G75*
G02*
X130945679Y-170320870I-1315552J-1506437D01*
G01*
X227092397Y-170320874D02*
G75*
G02*
X227560917Y-169718365I1784103J-903926D01*
G01*
X105256652Y-79894711D02*
G75*
G02*
X102967308Y-81107878I-1858152J739811D01*
G01*
X197217676Y-116319218D02*
X160820392Y-116319218D01*
X192525449Y-102865254D02*
X214282981Y-83867023D01*
X213937645Y-83133675D02*
X214282981Y-83867023D01*
X198399330Y-176616733D02*
X216909205Y-185994740D01*
X120191462Y-160735779D02*
G75*
G02*
X120000649Y-157913830I1315538J1506379D01*
G01*
X225934251Y-144054778D02*
X238037455Y-157913798D01*
X66982142Y-123342582D02*
X77115558Y-77447987D01*
X143755978Y-83860403D02*
X144100423Y-83133675D01*
X120191462Y-160735779D02*
X130477152Y-169718363D01*
X157097156Y-167175027D02*
X160518919Y-173928745D01*
X157821356Y-164575055D02*
G75*
G02*
X200216712Y-164575055I21197678J-33921358D01*
G01*
X227560916Y-169718363D02*
X237846606Y-160735779D01*
X231302160Y-78033534D02*
X247344317Y-71646016D01*
X120000613Y-157913798D02*
X132103818Y-144054778D01*
X160820392Y-116319218D02*
G75*
G02*
X159313959Y-113003636I8J2000018D01*
G01*
X270925653Y-117150720D02*
G75*
G02*
X273618430Y-118577641I739847J-1858080D01*
G01*
X214879420Y-80466643D02*
X225705841Y-75290871D01*
X68503894Y-125726753D02*
X80221663Y-128314008D01*
X273618465Y-118577633D02*
X275432234Y-126792256D01*
X277816405Y-128314008D02*
X289534174Y-125726753D01*
X160518919Y-173928745D02*
G75*
G02*
X159638716Y-176616688I-1784119J-903855D01*
G01*
X141985068Y-146908861D02*
X142019034Y-146938524D01*
X198399330Y-176616734D02*
G75*
G02*
X197519077Y-173928708I903870J1784134D01*
G01*
X198724091Y-113003652D02*
G75*
G02*
X197217676Y-116319170I-1506391J-1315548D01*
G01*
X228372873Y-76232646D02*
X228757906Y-77038039D01*
X216053000Y-146908861D02*
X216019034Y-146869968D01*
X68503893Y-125726753D02*
G75*
G02*
X66982149Y-123342584I431207J1952953D01*
G01*
X131912968Y-141232798D02*
G75*
G02*
X132103804Y-144054766I-1315568J-1506402D01*
G01*
X143158648Y-80466644D02*
G75*
G02*
X144100358Y-83133644I-862648J-1804356D01*
G01*
X216019034Y-146938524D02*
X216053000Y-146908861D01*
X142019034Y-146869968D02*
X141985068Y-146908861D01*
X239584087Y-129630014D02*
X270925654Y-117150719D01*
X129665195Y-76232647D02*
G75*
G02*
X132332222Y-75290880I1804405J-862653D01*
G01*
X219597193Y-185114560D02*
G75*
G02*
X216909191Y-185994768I-1784093J903860D01*
G01*
X157097155Y-167175027D02*
G75*
G02*
X157821348Y-164575042I1784045J903927D01*
G01*
X129280162Y-77038039D02*
G75*
G02*
X126735930Y-78033480I-1804362J862639D01*
G01*
X277816405Y-128314009D02*
G75*
G02*
X275432204Y-126792263I-431205J1953009D01*
G01*
X141128863Y-185994740D02*
G75*
G02*
X138440941Y-185114526I-903863J1784040D01*
G01*
X255070748Y-81107822D02*
G75*
G02*
X252781397Y-79894719I-431248J1952922D01*
G01*
X238037455Y-157913798D02*
G75*
G02*
X237846642Y-160735820I-1506455J-1315602D01*
G01*
X278538340Y-75926235D02*
G75*
G02*
X280922456Y-77447999I431160J-1952965D01*
G01*
X108095778Y-72764289D02*
G75*
G02*
X110693759Y-71645997I1858122J-739811D01*
G01*
X226125100Y-141232797D02*
X239008372Y-129981722D01*
X225705841Y-75290872D02*
G75*
G02*
X228372920Y-76232624I862659J-1804428D01*
G01*
X110693751Y-71646016D02*
X126735909Y-78033534D01*
X231302160Y-78033535D02*
G75*
G02*
X228757889Y-77038047I-739860J1858135D01*
G01*
X291055926Y-123342583D02*
G75*
G02*
X289534170Y-125726736I-1952926J-431217D01*
G01*
X129280162Y-77038039D02*
X129665195Y-76232646D01*
X82605834Y-126792257D02*
G75*
G02*
X80221678Y-128313942I-1952934J431257D01*
G01*
X118453981Y-129630014D02*
G75*
G02*
X119029698Y-129981721I-739881J-1858186D01*
G01*
X84419602Y-118577633D02*
G75*
G02*
X87112444Y-117150646I1952998J-431167D01*
G01*
X77115559Y-77447987D02*
G75*
G02*
X79499723Y-75926261I1952941J-431213D01*
G01*
X159313977Y-113003652D02*
X165703468Y-105687235D01*
X249942290Y-72764289D02*
X252781416Y-79894711D01*
X213937645Y-83133676D02*
G75*
G02*
X214879403Y-80466607I1804355J862676D01*
G01*
X225934250Y-144054779D02*
G75*
G02*
X226125086Y-141232781I1506450J1315579D01*
G01*
M02*
