M48
; DRILL file {KiCad 8.0.8} date 2025-01-27T10:17:14-0800
; FORMAT={-:-/ absolute / metric / decimal}
; #@! TF.CreationDate,2025-01-27T10:17:14-08:00
; #@! TF.GenerationSoftware,Kicad,Pcbnew,8.0.8
; #@! TF.FileFunction,MixedPlating,1,2
FMAT,2
METRIC
; #@! TA.AperFunction,Plated,PTH,ViaDrill
T1C0.400
; #@! TA.AperFunction,Plated,PTH,ViaDrill
T2C0.500
; #@! TA.AperFunction,Plated,PTH,ComponentDrill
T3C0.600
; #@! TA.AperFunction,Plated,PTH,ComponentDrill
T4C0.800
; #@! TA.AperFunction,Plated,PTH,ComponentDrill
T5C1.000
; #@! TA.AperFunction,Plated,PTH,ComponentDrill
T6C1.270
; #@! TA.AperFunction,Plated,PTH,ComponentDrill
T7C1.500
; #@! TA.AperFunction,Plated,PTH,ComponentDrill
T8C2.000
; #@! TA.AperFunction,NonPlated,NPTH,ComponentDrill
T9C0.900
; #@! TA.AperFunction,NonPlated,NPTH,ComponentDrill
T10C1.702
; #@! TA.AperFunction,NonPlated,NPTH,ComponentDrill
T11C3.429
%
G90
G05
T1
X175.5Y-142.9
X175.6Y-149.8
X182.4Y-149.8
X182.499Y-142.899
X185.6Y-142.0
X187.8Y-143.8
X187.8Y-151.8
X189.6Y-145.4
T2
X191.8Y-139.8
X223.8Y-139.8
T3
X174.574Y-126.502
X174.574Y-126.502
X182.829Y-135.519
X184.734Y-136.319
T4
X171.399Y-119.199
X171.399Y-121.739
X171.399Y-124.279
X171.399Y-126.819
X171.399Y-129.359
X171.399Y-131.899
X171.399Y-134.439
X186.639Y-119.199
X186.639Y-121.739
X186.639Y-124.279
X186.639Y-126.819
X186.639Y-129.359
X186.639Y-131.899
X186.639Y-134.439
T5
X171.399Y-119.199
X171.399Y-121.739
X171.399Y-124.279
X171.399Y-126.819
X171.399Y-129.359
X171.399Y-131.899
X171.399Y-134.439
X186.639Y-119.199
X186.639Y-121.739
X186.639Y-124.279
X186.639Y-126.819
X186.639Y-129.359
X186.639Y-131.899
X186.639Y-134.439
T6
X77.36Y-113.447
X81.133Y-96.359
X81.789Y-116.576
X84.906Y-79.27
X85.562Y-99.488
X89.335Y-82.399
X102.544Y-108.334
X106.412Y-112.134
X109.018Y-92.075
X112.886Y-95.876
X115.491Y-75.817
X119.36Y-79.617
X121.366Y-112.14
X124.972Y-116.191
X128.914Y-96.351
X132.52Y-100.403
X133.854Y-154.213
X136.239Y-159.084
X136.462Y-80.563
X136.59Y-126.863
X138.974Y-131.733
X140.068Y-84.614
X147.292Y-171.83
X147.679Y-177.239
X148.101Y-113.681
X150.486Y-118.552
X159.612Y-100.5
X161.997Y-105.371
X198.426Y-100.5
X203.573Y-98.793
X209.937Y-113.681
X210.746Y-171.83
X214.879Y-168.319
X215.085Y-111.974
X221.448Y-126.863
X221.576Y-80.563
X224.184Y-154.213
X226.596Y-125.155
X226.993Y-80.301
X229.124Y-96.351
X229.332Y-152.506
X234.541Y-96.089
X236.672Y-112.14
X242.089Y-111.878
X242.547Y-75.817
X247.969Y-75.918
X249.02Y-92.075
X254.443Y-92.177
X255.494Y-108.334
X260.916Y-108.435
X273.132Y-79.27
X276.905Y-96.359
X278.467Y-80.243
X280.678Y-113.447
X282.24Y-97.331
X286.014Y-114.42
T7
X77.36Y-113.447
X81.133Y-96.359
X81.789Y-116.576
X84.906Y-79.27
X85.562Y-99.488
X89.335Y-82.399
X102.544Y-108.334
X106.412Y-112.134
X109.018Y-92.075
X112.886Y-95.876
X115.491Y-75.817
X119.36Y-79.617
X121.366Y-112.14
X124.972Y-116.191
X128.914Y-96.351
X132.52Y-100.403
X133.854Y-154.213
X136.239Y-159.084
X136.462Y-80.563
X136.59Y-126.863
X138.974Y-131.733
X140.068Y-84.614
X147.292Y-171.83
X147.679Y-177.239
X148.101Y-113.681
X150.486Y-118.552
X159.612Y-100.5
X161.997Y-105.371
X198.426Y-100.5
X203.573Y-98.793
X209.937Y-113.681
X210.746Y-171.83
X214.879Y-168.319
X215.085Y-111.974
X221.448Y-126.863
X221.576Y-80.563
X224.184Y-154.213
X226.596Y-125.155
X226.993Y-80.301
X229.124Y-96.351
X229.332Y-152.506
X234.541Y-96.089
X236.672Y-112.14
X242.089Y-111.878
X242.547Y-75.817
X247.969Y-75.918
X249.02Y-92.075
X254.443Y-92.177
X255.494Y-108.334
X260.916Y-108.435
X273.132Y-79.27
X276.905Y-96.359
X278.467Y-80.243
X280.678Y-113.447
X282.24Y-97.331
X286.014Y-114.42
T8
X172.409Y-147.269
X185.629Y-147.269
T9
X177.519Y-118.094
X180.519Y-118.094
T10
X70.717Y-118.023
X74.49Y-100.934
X78.263Y-83.846
X81.458Y-120.394
X85.231Y-103.306
X89.004Y-86.218
X95.252Y-111.781
X101.725Y-95.522
X105.471Y-115.85
X108.199Y-79.263
X111.945Y-99.591
X113.859Y-115.091
X118.419Y-83.333
X121.407Y-99.302
X123.784Y-119.835
X125.83Y-155.039
X128.566Y-127.689
X128.955Y-83.514
X131.332Y-104.047
X134.116Y-162.275
X136.851Y-134.924
X138.88Y-88.258
X139.544Y-169.59
X140.077Y-114.508
X144.515Y-179.403
X148.363Y-121.743
X151.588Y-101.326
X159.874Y-108.562
X198.164Y-108.562
X206.45Y-101.326
X209.676Y-121.743
X213.523Y-179.403
X217.961Y-114.508
X218.494Y-169.59
X219.158Y-88.258
X221.187Y-134.924
X223.922Y-162.275
X226.706Y-104.047
X229.083Y-83.514
X229.472Y-127.689
X232.208Y-155.039
X234.254Y-119.835
X236.631Y-99.302
X239.62Y-83.333
X244.179Y-115.091
X246.093Y-99.591
X249.839Y-79.263
X252.567Y-115.85
X256.313Y-95.522
X262.787Y-111.781
X269.034Y-86.218
X272.807Y-103.306
X276.58Y-120.394
X279.775Y-83.846
X283.548Y-100.934
X287.321Y-118.023
T11
X76.088Y-119.209
X79.861Y-102.12
X83.634Y-85.032
X100.361Y-113.815
X106.835Y-97.557
X113.309Y-81.298
X118.822Y-117.463
X126.37Y-101.674
X129.973Y-158.657
X132.709Y-131.306
X133.918Y-85.886
X142.029Y-174.496
X144.22Y-118.125
X155.731Y-104.944
X202.307Y-104.944
X213.818Y-118.125
X216.009Y-174.496
X224.121Y-85.886
X225.329Y-131.306
X228.065Y-158.657
X231.669Y-101.674
X239.217Y-117.463
X244.729Y-81.298
X251.203Y-97.557
X257.677Y-113.815
X274.404Y-85.032
X278.177Y-102.12
X281.95Y-119.209
M30
