<?xml version="1.0" encoding="utf-8" ?>
<svg xmlns="http://www.w3.org/2000/svg" xmlns:cc="http://creativecommons.org/ns" xmlns:dc="http://purl.org/dc/elements/1.1/" xmlns:ev="http://www.w3.org/2001/xml-events" xmlns:inkscape="http://www.inkscape.org/namespaces/inkscape" xmlns:rdf="http://www.w3.org/1999/02/22-rdf-syntax-ns" xmlns:sodipodi="http://sodipodi.sourceforge.net/DTD/sodipodi-0.dtd" xmlns:xlink="http://www.w3.org/1999/xlink" baseProfile="tiny" height="11.4833462cm" version="1.2" viewBox="0 0 847.7764577990399 434.01623436863997" width="22.43075211cm">
  <metadata>
    <rdf:RDF>
      <cc:Work>
        <dc:format>image/svg+xml</dc:format>
        <dc:source>vpype read board/output/outlines/sessile-brd.svg linemerge --tolerance 3mm linesort reloop linesimplify write board/output/outlines/sessile-brd-vpype.svg
</dc:source>
        <dc:date>2025-01-27T10:34:50.807509</dc:date>
      </cc:Work>
    </rdf:RDF>
  </metadata>
  <defs/>
  <g fill="none" id="layer80" inkscape:groupmode="layer" inkscape:label="80" stroke="#c2c200" stroke-width="0.5669" style="display:inline">
    <polygon points="242.2134,373.7645 270.9219,430.342 272.4354,432.0597 274.3937,433.2456 276.6172,433.7907 278.9019,433.6452 280.7011,433.0041 350.6595,397.5596 353.0418,395.6659 354.0722,394.0577 354.6666,392.2425 354.787,390.3363 354.4258,388.4608 341.0534,361.8745 340.3369,359.681 340.3806,356.9931 341.5732,354.1671 343.1577,352.4896 346.3753,350.4682 358.0358,344.1786 370.5563,338.8 383.5102,334.5706 396.42,331.5932 409.5408,329.7574 423.1506,329.0751 436.7665,329.6211 450.278,331.3908 458.0678,332.983 465.763,334.9826 473.3425,337.3839 480.7853,340.1805 489.0975,343.8504 496.8428,347.8299 504.3473,352.2606 506.2425,354.1671 506.9837,355.519 507.5003,357.3736 507.5316,359.2986 507.0756,361.169 493.8296,387.4003 493.1885,389.1995 493.0189,391.102 493.4507,393.3502 494.3131,395.0544 495.8689,396.7339 567.4609,433.1688 569.2904,433.7179 571.199,433.7909 572.701,433.5023 574.4468,432.7273 576.2029,431.2585 577.2744,429.6773 606.2534,372.7059 646.2485,337.5373 647.5168,336.1092 648.3867,334.4088 648.8026,332.5446 648.738,330.6357 648.197,328.804 647.2142,327.1662 600.9807,274.1962 599.7259,271.8427 599.3665,269.1999 599.9474,266.5967 601.6648,264.0843 650.6396,221.3013 652.8155,219.972 771.2716,172.8061 773.1317,172.3281 775.4327,172.3942 777.9428,173.3386 779.7165,174.8058 780.9665,176.7389 788.5072,209.9849 789.1308,211.3815 790.2837,212.9044 792.8067,214.6062 795.0311,215.1476 796.9396,215.0712 841.6034,205.2194 844.382,203.9785 845.5277,202.9654 846.6355,201.4095 847.4612,198.8735 847.3547,196.2086 809.0552,22.7486 808.0294,20.2865 806.513,18.5715 804.5527,17.389 802.3284,16.8476 800.42,16.9239 711.3475,36.5809 709.4584,36.7542 707.5855,36.4517 705.847,35.6924 704.3523,34.5241 703.396,33.3437 691.6457,4.3503 690.5563,2.7814 689.4225,1.7548 686.6586,0.4811 684.376,0.3047 682.1454,0.8198 620.0591,25.3778 618.5506,25.496 616.6814,25.2185 614.0013,23.8462 612.2581,21.8652 609.6465,16.8489 607.3574,14.8434 604.463,13.9032 601.4323,14.1807 559.4433,34.1575 557.8379,35.1924 555.9509,37.5801 555.1584,40.5184 555.4687,43.1676 557.1892,47.0094 474.9557,118.8137 473.6878,120.2421 472.6971,122.3058 472.376,124.1886 472.6269,126.464 473.5474,128.56 498.3839,157.1321 499.4517,158.7242 500.2058,161.2928 500.0174,163.9632 498.6837,166.711 496.7022,168.5111 494.592,169.4204 492.6904,169.6635 355.1257,169.6635 353.5985,169.5076 351.7852,168.8853 350.1868,167.8269 348.906,166.4004 348.0253,164.6976 347.6013,162.8279 347.6613,160.9118 348.0562,159.4283 349.4323,157.1321 374.0554,128.8783 374.9541,127.1929 375.434,124.9543 375.3051,123.0485 374.7026,121.236 372.86,118.8137 290.6303,46.9845 292.4483,42.798 292.5718,39.7573 292.1736,38.2806 291.2723,36.5967 289.9777,35.1925 288.3724,34.1575 246.0142,14.0791 242.9736,13.9556 240.1306,15.0412 237.9461,17.1599 235.5581,21.8652 233.8148,23.8462 232.2023,24.8313 230.7674,25.3113 227.7571,25.3778 165.6704,0.8198 163.4398,0.3048 161.1574,0.4812 159.3671,1.1466 157.8007,2.2394 156.5582,3.69 144.8042,32.6875 143.7246,34.2476 142.2906,35.4896 140.9483,36.201 139.1153,36.6902 136.4682,36.5813 47.3958,16.9238 44.7287,16.9524 42.2376,17.9055 40.0015,19.9698 38.7606,22.7486 0.4611,196.2086 0.3546,198.8736 1.1804,201.4096 2.2882,202.9655 3.434,203.9786 6.2128,205.2194 50.8765,215.0708 52.7849,215.1471 55.0092,214.6058 56.6691,213.661 57.7929,212.6237 59.3086,209.9848 66.8493,176.7388 68.0991,174.8057 69.8729,173.3384 72.3829,172.3939 74.684,172.3278 76.5442,172.8058 195.0007,219.972 196.503,220.777 245.8694,263.8252 247.1376,265.2532 248.1283,267.317 248.4492,269.1997 248.3588,270.7265 247.8178,272.5582 246.835,274.1959 200.8461,326.8715 199.6187,328.804 198.9938,331.3969 199.1227,333.3026 199.5683,334.7657 201.2856,337.2782 240.4423,371.4869"/>
  </g>
</svg>
