<?xml version="1.0" encoding="UTF-8" standalone="no"?>
<svg
   version="1.1"
   width="224.3074mm"
   height="114.8334mm"
   viewBox="0.0000 0.0000 224.3074 114.8334"
   id="svg80"
   sodipodi:docname="sessile-brd.svg"
   inkscape:version="1.4 (e7c3feb1, 2024-10-09)"
   xmlns:inkscape="http://www.inkscape.org/namespaces/inkscape"
   xmlns:sodipodi="http://sodipodi.sourceforge.net/DTD/sodipodi-0.dtd"
   xmlns="http://www.w3.org/2000/svg"
   xmlns:svg="http://www.w3.org/2000/svg"
   xmlns:rdf="http://www.w3.org/1999/02/22-rdf-syntax-ns#"
   xmlns:cc="http://creativecommons.org/ns#"
   xmlns:dc="http://purl.org/dc/elements/1.1/">
  <defs
     id="defs80" />
  <sodipodi:namedview
     id="namedview80"
     pagecolor="#ffffff"
     bordercolor="#000000"
     borderopacity="0.25"
     inkscape:showpageshadow="2"
     inkscape:pageopacity="0.0"
     inkscape:pagecheckerboard="0"
     inkscape:deskcolor="#d1d1d1"
     inkscape:document-units="mm"
     inkscape:zoom="1.1454461"
     inkscape:cx="206.46978"
     inkscape:cy="191.6284"
     inkscape:window-width="2544"
     inkscape:window-height="954"
     inkscape:window-x="10"
     inkscape:window-y="35"
     inkscape:window-maximized="0"
     inkscape:current-layer="svg80" />
  <title
     id="title1">SVG Image created as sessile-brd.svg date 2025/01/27 09:49:13 </title>
  <desc
     id="desc1">Image generated by PCBNEW </desc>
  <g
     style="fill:#000000; fill-opacity:1.0000;stroke:#000000; stroke-opacity:1.0000; stroke-linecap:round; stroke-linejoin:round;"
     transform="translate(0 0) scale(1 1)"
     id="g1" />
  <g
     style="fill:none;  stroke:#C2C200; stroke-width:0.1500; stroke-opacity:1;  stroke-linecap:round; stroke-linejoin:round;"
     id="g80">
    <path
       d="M125.4745 34.2581 L131.8640 41.5745 "
       id="path1" />
    <path
       d="M15.7457 55.3631 L17.5595 47.1485 "
       id="path2" />
    <path
       d="M52.1696 58.5526 L65.0529 69.8037 "
       id="path3" />
    <path
       d="M214.0624 6.0189 L224.1958 51.9135 "
       id="path4" />
    <path
       d="M74.2688 114.5656 L92.7786 105.1876 "
       id="path5" />
    <path
       d="M125.6654 31.4362 A2.0000 2.0000 0.0 0 0 125.4745 34.2581"
       id="path6" />
    <path
       d="M20.2523 45.7216 L51.5939 58.2009 "
       id="path7" />
    <path
       d="M130.6590 102.4996 L134.0808 95.7459 "
       id="path8" />
    <path
       d="M76.8959 12.4313 L98.6525 31.4361 "
       id="path9" />
    <path
       d="M188.2106 9.6787 L211.6782 4.4971 "
       id="path10" />
    <path
       d="M65.4721 3.8618 L76.2985 9.0375 "
       id="path12" />
    <path
       d="M152.7371 113.6854 L160.2323 98.8918 "
       id="path13" />
    <path
       d="M64.0856 98.8918 L71.5808 113.6854 "
       id="path14" />
    <path
       d="M12.6396 4.4971 L36.1072 9.6787 "
       id="path15" />
    <path
       d="M38.3965 8.4656 L41.2357 1.3352 "
       id="path16" />
    <path
       d="M183.0822 1.3352 A2.0000 2.0000 0.0 0 0 180.4842 0.2169"
       id="path18" />
    <path
       d="M134.0808 95.7459 A2.0000 2.0000 0.0 0 0 133.3566 93.1459"
       id="path19" />
    <path
       d="M98.8434 34.2582 A2.0000 2.0000 0.0 0 0 98.6525 31.4361"
       id="path20" />
    <path
       d="M172.7240 58.2009 A2.0001 2.0001 0.0 0 0 172.1483 58.5526"
       id="path21" />
    <path
       d="M64.0856 98.8918 A2.0000 2.0000 0.0 0 0 63.6170 98.2892"
       id="path22" />
    <path
       d="M160.7008 98.2892 A2.0000 2.0000 0.0 0 0 160.2323 98.8918"
       id="path23" />
    <path
       d="M36.1072 9.6788 A2.0000 2.0000 0.0 0 0 38.3965 8.4656"
       id="path24" />
    <path
       d="M130.3576 44.8901 L93.9603 44.8901 "
       id="path25" />
    <path
       d="M125.6653 31.4361 L147.4229 12.4379 "
       id="path26" />
    <path
       d="M147.0775 11.7046 L147.4229 12.4379 "
       id="path27" />
    <path
       d="M131.5392 105.1876 L150.0491 114.5656 "
       id="path28" />
    <path
       d="M53.1405 86.4847 A2.0000 2.0000 0.0 0 0 53.3314 89.3067"
       id="path29" />
    <path
       d="M159.0741 72.6257 L171.1773 86.4847 "
       id="path30" />
    <path
       d="M0.1220 51.9135 L10.2554 6.0189 "
       id="path31" />
    <path
       d="M76.8959 12.4313 L77.2403 11.7046 "
       id="path32" />
    <path
       d="M53.3314 89.3067 L63.6170 98.2892 "
       id="path33" />
    <path
       d="M90.2370 95.7459 L93.6588 102.4996 "
       id="path34" />
    <path
       d="M133.3566 93.1459 A40.0000 40.0000 0.0 0 0 90.9612 93.1459"
       id="path35" />
    <path
       d="M160.7008 98.2892 L170.9865 89.3067 "
       id="path36" />
    <path
       d="M164.4421 6.6044 L180.4842 0.2169 "
       id="path37" />
    <path
       d="M53.1405 86.4847 L65.2437 72.6257 "
       id="path38" />
    <path
       d="M92.4539 41.5745 A2.0000 2.0000 0.0 0 0 93.9603 44.8901"
       id="path39" />
    <path
       d="M206.7583 47.1485 A2.0000 2.0000 0.0 0 0 204.0655 45.7216"
       id="path40" />
    <path
       d="M148.0193 9.0375 L158.8457 3.8618 "
       id="path41" />
    <path
       d="M1.6438 54.2976 L13.3616 56.8849 "
       id="path42" />
    <path
       d="M206.7584 47.1485 L208.5721 55.3631 "
       id="path43" />
    <path
       d="M210.9563 56.8849 L222.6741 54.2976 "
       id="path44" />
    <path
       d="M92.7786 105.1876 A2.0000 2.0000 0.0 0 0 93.6588 102.4996"
       id="path45" />
    <path
       d="M130.6590 102.4996 A2.0000 2.0000 0.0 0 0 131.5392 105.1876"
       id="path47" />
    <path
       d="M130.3576 44.8901 A2.0000 2.0000 0.0 0 0 131.8640 41.5745"
       id="path48" />
    <path
       d="M161.5128 4.8035 L161.8978 5.6089 "
       id="path49" />
    <path
       d="M0.1220 51.9135 A2.0000 2.0000 0.0 0 0 1.6438 54.2976"
       id="path51" />
    <path
       d="M65.2437 72.6256 A2.0000 2.0000 0.0 0 0 65.0529 69.8037"
       id="path52" />
    <path
       d="M77.2402 11.7045 A2.0000 2.0000 0.0 0 0 76.2985 9.0375"
       id="path53" />
    <path
       d="M172.7240 58.2009 L204.0655 45.7216 "
       id="path56" />
    <path
       d="M65.4721 3.8618 A2.0000 2.0000 0.0 0 0 62.8051 4.8035"
       id="path57" />
    <path
       d="M150.0491 114.5657 A2.0000 2.0000 0.0 0 0 152.7371 113.6854"
       id="path58" />
    <path
       d="M90.9612 93.1459 A2.0000 2.0000 0.0 0 0 90.2370 95.7459"
       id="path59" />
    <path
       d="M59.8758 6.6044 A2.0000 2.0000 0.0 0 0 62.4201 5.6089"
       id="path60" />
    <path
       d="M208.5721 55.3631 A2.0000 2.0000 0.0 0 0 210.9563 56.8849"
       id="path61" />
    <path
       d="M71.5808 113.6854 A1.9999 1.9999 0.0 0 0 74.2688 114.5656"
       id="path62" />
    <path
       d="M185.9213 8.4656 A2.0000 2.0000 0.0 0 0 188.2106 9.6787"
       id="path63" />
    <path
       d="M170.9865 89.3067 A2.0001 2.0001 0.0 0 0 171.1773 86.4847"
       id="path64" />
    <path
       d="M214.0623 6.0189 A2.0000 2.0000 0.0 0 0 211.6782 4.4971"
       id="path65" />
    <path
       d="M43.8336 0.2169 A2.0000 2.0000 0.0 0 0 41.2357 1.3352"
       id="path66" />
    <path
       d="M159.2650 69.8037 L172.1483 58.5526 "
       id="path67" />
    <path
       d="M161.5128 4.8035 A2.0000 2.0000 0.0 0 0 158.8457 3.8618"
       id="path68" />
    <path
       d="M43.8336 0.2169 L59.8758 6.6044 "
       id="path69" />
    <path
       d="M161.8978 5.6089 A2.0000 2.0000 0.0 0 0 164.4421 6.6044"
       id="path70" />
    <path
       d="M222.6741 54.2976 A2.0000 2.0000 0.0 0 0 224.1958 51.9135"
       id="path71" />
    <path
       d="M62.4201 5.6089 L62.8051 4.8035 "
       id="path72" />
    <path
       d="M13.3616 56.8848 A2.0000 2.0000 0.0 0 0 15.7457 55.3631"
       id="path73" />
    <path
       d="M52.1696 58.5526 A2.0001 2.0001 0.0 0 0 51.5939 58.2009"
       id="path74" />
    <path
       d="M20.2523 45.7215 A2.0000 2.0000 0.0 0 0 17.5595 47.1485"
       id="path75" />
    <path
       d="M12.6396 4.4971 A2.0000 2.0000 0.0 0 0 10.2554 6.0189"
       id="path76" />
    <path
       d="M92.4539 41.5745 L98.8434 34.2581 "
       id="path77" />
    <path
       d="M183.0822 1.3352 L185.9213 8.4656 "
       id="path78" />
    <path
       d="M148.0193 9.0375 A2.0000 2.0000 0.0 0 0 147.0775 11.7046"
       id="path79" />
    <path
       d="M159.2650 69.8037 A2.0000 2.0000 0.0 0 0 159.0741 72.6257"
       id="path80" />
  </g>
  <metadata
     id="metadata80">
    <rdf:RDF>
      <cc:Work
         rdf:about="">
        <dc:title>SVG Image created as sessile-brd.svg date 2025/01/27 09:49:13 </dc:title>
      </cc:Work>
    </rdf:RDF>
  </metadata>
</svg>
